<svg width="100%" height="100%" viewBox="0 0 48 48" fill="none" xmlns="http://www.w3.org/2000/svg">
    <rect width="100%" height="100%" rx="24" fill="currentColor"></rect>
    <path
        d="M27.8125 17.1969H34.0469V18.7094H27.8125V17.1969ZM21.5656 23.1813C22.9438 22.5219 23.6656 21.5188 23.6656 19.9688C23.6656 16.9032 21.3844 16.1594 18.75 16.1594H11.5V31.5469H18.9531C21.7469 31.5469 24.3687 30.2032 24.3687 27.0782C24.3687 25.1469 23.4563 23.7188 21.5656 23.1813V23.1813ZM14.8812 18.7844H18.0531C19.275 18.7844 20.3719 19.125 20.3719 20.5438C20.3719 21.85 19.5187 22.375 18.3094 22.375H14.8812V18.7844ZM18.4906 28.9344H14.8781V24.6969H18.5625C20.05 24.6969 20.9906 25.3188 20.9906 26.8938C20.9906 28.4438 19.8688 28.9344 18.4906 28.9344V28.9344ZM36.4844 26.1375C36.4844 22.8407 34.5563 20.0938 31.0688 20.0938C27.6781 20.0938 25.3719 22.6469 25.3719 25.9938C25.3719 29.4625 27.5563 31.8438 31.0688 31.8438C33.7281 31.8438 35.45 30.6469 36.2781 28.0938H33.5812C33.2875 29.0469 32.0937 29.5469 31.1656 29.5469C29.3719 29.5469 28.4344 28.4969 28.4344 26.7125H36.4625C36.4719 26.5282 36.4844 26.3344 36.4844 26.1375V26.1375ZM28.4344 24.7813C28.5313 23.3157 29.5094 22.4 30.9719 22.4C32.5094 22.4 33.2781 23.3032 33.4125 24.7813H28.4344Z"
        fill="white"></path>
</svg>