<svg width="100%" height="100%" viewBox="0 0 48 48" fill="none" xmlns="http://www.w3.org/2000/svg">
    <rect width="100%" height="100%" rx="24" fill="currentColor"></rect>
    <path
        d="M24 11C16.8313 11 11 16.8313 11 24C11 31.1687 16.8313 37 24 37C31.1687 37 37 31.1687 37 24C37 16.8313 31.1687 11 24 11ZM32.5969 16.9937C34.1437 18.8844 35.0812 21.2906 35.1031 23.9125C34.7375 23.8344 31.0656 23.0906 27.3719 23.5562C27.2938 23.3656 27.2156 23.175 27.1344 22.9844C26.9031 22.4438 26.6563 21.9031 26.3969 21.375C30.5 19.6969 32.3625 17.3125 32.5969 16.9937ZM24 12.9125C26.8219 12.9125 29.4 13.9719 31.3594 15.7094C31.1594 15.9937 29.4875 18.2406 25.5406 19.7219C23.7219 16.3781 21.7063 13.6344 21.3969 13.2219C22.25 13.0156 23.1219 12.9125 24 12.9125V12.9125ZM19.2781 13.9688C19.5719 14.3688 21.5563 17.1219 23.3938 20.3906C18.2 21.7687 13.625 21.75 13.1281 21.7437C13.85 18.2969 16.1719 15.4344 19.2781 13.9688ZM12.8969 24.0156C12.8969 23.9031 12.9 23.7875 12.9031 23.675C13.3875 23.6844 18.7687 23.7531 24.3156 22.0938C24.6344 22.7156 24.9375 23.3469 25.2156 23.9781C25.0688 24.0187 24.9219 24.0625 24.7781 24.1094C19.05 25.9656 16.0031 31.0125 15.75 31.4406C13.9781 29.4719 12.8969 26.8688 12.8969 24.0156ZM24 35.1187C21.4313 35.1187 19.0656 34.2437 17.1844 32.775C17.3844 32.3656 19.6312 28.025 25.8937 25.8406L25.9656 25.8156C27.525 29.8656 28.1688 33.2625 28.3344 34.2375C26.9646 34.823 25.4897 35.1228 24 35.1187V35.1187ZM30.2031 33.2219C30.0906 32.5469 29.5 29.2969 28.0469 25.3062C31.5281 24.75 34.5844 25.6625 34.9625 25.7812C34.4687 28.8688 32.6969 31.5375 30.2031 33.2219V33.2219Z"
        fill="white"></path>
</svg>