<svg width="100%" height="100%" viewBox="0 0 48 48" fill="none" xmlns="http://www.w3.org/2000/svg">
    <rect width="100%" height="100%" rx="24" fill="currentColor"></rect>
    <path fill-rule="evenodd" clip-rule="evenodd"
        d="M20.572 19.9587H25.524V22.4254C26.2373 21.0067 28.0666 19.7321 30.8146 19.7321C36.0826 19.7321 37.3333 22.5561 37.3333 27.7374V37.3334H32V28.9174C32 25.9667 31.2866 24.3027 29.4706 24.3027C26.952 24.3027 25.9053 26.0961 25.9053 28.9161V37.3334H20.572V19.9587V19.9587ZM11.4266 37.1067H16.76V19.7321H11.4266V37.1067V37.1067ZM17.524 14.0667C17.5242 14.5138 17.4355 14.9564 17.2631 15.3689C17.0908 15.7813 16.8382 16.1554 16.52 16.4694C15.8752 17.1102 15.0024 17.469 14.0933 17.4667C13.1858 17.4661 12.315 17.1083 11.6693 16.4707C11.3522 16.1557 11.1005 15.7812 10.9284 15.3687C10.7564 14.9561 10.6674 14.5137 10.6666 14.0667C10.6666 13.1641 11.0266 12.3001 11.6706 11.6627C12.3158 11.0243 13.1869 10.6663 14.0946 10.6667C15.004 10.6667 15.876 11.0254 16.52 11.6627C17.1626 12.3001 17.524 13.1641 17.524 14.0667Z"
        fill="white"></path>
</svg>