<svg width="100%" height="100%" viewBox="0 0 48 48" fill="none" xmlns="http://www.w3.org/2000/svg">
    <rect width="100%" height="100%" rx="24" fill="currentColor"></rect>
    <path
        d="M28.32 24C28.32 21.6 26.4 19.68 24 19.68C21.6 19.68 19.68 21.6 19.68 24C19.68 26.4 21.6 28.32 24 28.32C26.4 28.32 28.32 26.4 28.32 24ZM30.56 24C30.56 27.68 27.68 30.56 24 30.56C20.32 30.56 17.44 27.68 17.44 24C17.44 20.32 20.32 17.44 24 17.44C27.68 17.44 30.56 20.32 30.56 24ZM32.32 17.12C32.32 18.08 31.68 18.72 30.72 18.72C29.76 18.72 29.12 18.08 29.12 17.12C29.12 16.16 29.76 15.52 30.72 15.52C31.68 15.52 32.32 16.32 32.32 17.12ZM24 13.44C22.08 13.44 18.08 13.28 16.48 13.92C15.36 14.4 14.4 15.36 14.08 16.48C13.44 18.08 13.6 22.08 13.6 24C13.6 25.92 13.44 29.92 14.08 31.52C14.4 32.64 15.36 33.6 16.48 33.92C18.08 34.56 22.24 34.4 24 34.4C25.76 34.4 29.92 34.56 31.52 33.92C32.64 33.44 33.44 32.64 33.92 31.52C34.56 29.76 34.4 25.76 34.4 24C34.4 22.24 34.56 18.08 33.92 16.48C33.6 15.36 32.64 14.4 31.52 14.08C29.92 13.28 25.92 13.44 24 13.44ZM36.8 24V29.28C36.8 31.2 36.16 33.12 34.72 34.72C33.28 36.16 31.36 36.8 29.28 36.8H18.72C16.8 36.8 14.88 36.16 13.28 34.72C12 33.28 11.2 31.36 11.2 29.28V18.72C11.2 16.64 12 14.72 13.28 13.28C14.88 12 16.8 11.2 18.72 11.2H29.28C31.2 11.2 33.12 11.84 34.72 13.28C36 14.72 36.8 16.64 36.8 18.72V24Z"
        fill="white"></path>
</svg>